<?xml version="1.0" encoding="UTF-8" standalone="no"?>
<!-- Created with Inkscape (http://www.inkscape.org/) -->

<svg
   version="1.1"
   id="svg2"
   width="1600"
   height="1600"
   viewBox="0 0 1600 1600"
   sodipodi:docname="nus-logo.ai"
   xmlns:inkscape="http://www.inkscape.org/namespaces/inkscape"
   xmlns:sodipodi="http://sodipodi.sourceforge.net/DTD/sodipodi-0.dtd"
   xmlns="http://www.w3.org/2000/svg"
   xmlns:svg="http://www.w3.org/2000/svg">
  <defs
     id="defs6">
    <clipPath
       clipPathUnits="userSpaceOnUse"
       id="clipPath20">
      <path
         d="M 56.556,350.971 H 1143.444 V 849.028 H 56.556 Z"
         id="path18" />
    </clipPath>
    <clipPath
       clipPathUnits="userSpaceOnUse"
       id="clipPath38">
      <path
         d="M 56.556,350.971 H 1143.444 V 849.028 H 56.556 Z"
         id="path36" />
    </clipPath>
    <clipPath
       clipPathUnits="userSpaceOnUse"
       id="clipPath60">
      <path
         d="M 56.556,350.971 H 1143.444 V 849.028 H 56.556 Z"
         id="path58" />
    </clipPath>
    <clipPath
       clipPathUnits="userSpaceOnUse"
       id="clipPath82">
      <path
         d="M 56.556,350.971 H 1143.444 V 849.028 H 56.556 Z"
         id="path80" />
    </clipPath>
    <clipPath
       clipPathUnits="userSpaceOnUse"
       id="clipPath104">
      <path
         d="M 56.556,350.971 H 1143.444 V 849.028 H 56.556 Z"
         id="path102" />
    </clipPath>
    <clipPath
       clipPathUnits="userSpaceOnUse"
       id="clipPath134">
      <path
         d="M 56.556,350.971 H 1143.444 V 849.028 H 56.556 Z"
         id="path132" />
    </clipPath>
    <clipPath
       clipPathUnits="userSpaceOnUse"
       id="clipPath294">
      <path
         d="M 56.556,350.971 H 1143.444 V 849.028 H 56.556 Z"
         id="path292" />
    </clipPath>
  </defs>
  <sodipodi:namedview
     id="namedview4"
     pagecolor="#ffffff"
     bordercolor="#000000"
     borderopacity="0.25"
     inkscape:showpageshadow="2"
     inkscape:pageopacity="0.0"
     inkscape:pagecheckerboard="0"
     inkscape:deskcolor="#d1d1d1" />
  <g
     id="g8"
     inkscape:groupmode="layer"
     inkscape:label="nus-logo"
     transform="matrix(1.3333333,0,0,-1.3333333,0,1600)">
    <g
       id="g10"
       transform="translate(525.4196,558.5971)">
      <path
         d="m 0,0 h 7.29 v -50.859 h -9.32 l -23.037,41.811 h -0.144 V -50.859 H -32.49 V 0 h 9.907 L -0.156,-40.947 H 0 Z"
         style="fill:#003399;fill-opacity:1;fill-rule:nonzero;stroke:none"
         id="path12" />
    </g>
    <g
       id="g14">
      <g
         id="g16"
         clip-path="url(#clipPath20)">
        <g
           id="g22"
           transform="translate(567.0262,522.1498)">
          <path
             d="m 0,0 c 0,-5.526 -3.578,-9.762 -10.362,-9.762 -3.113,0 -6.913,2.126 -6.913,6.052 0,6.555 9.186,7.137 12.905,7.137 1.449,0 2.9,-0.135 4.37,-0.135 z m -19.971,14.299 c 2.765,2.312 6.922,3.77 10.776,3.77 6.856,0 9.195,-3.278 9.195,-9.696 -2.696,0.156 -4.599,0.156 -7.297,0.156 -7.057,0 -17.264,-2.903 -17.264,-12.242 0,-8.068 5.615,-11.589 13.629,-11.589 6.262,0 9.909,3.431 11.513,5.693 h 0.138 v -4.814 h 6.416 c -0.151,1.101 -0.289,3.06 -0.289,7.297 V 8.233 c 0,10.131 -4.292,15.38 -14.933,15.38 -4.747,0 -8.826,-1.451 -12.251,-3.498 z"
             style="fill:#003399;fill-opacity:1;fill-rule:nonzero;stroke:none"
             id="path24" />
        </g>
        <g
           id="g26"
           transform="translate(605.1925,539.3583)">
          <path
             d="m 0,0 h -9.831 v -20.331 c 0,-4.301 2.63,-6.629 5.761,-6.629 2.12,0 3.647,0.655 4.661,1.303 v -5.821 c -1.539,-0.439 -3.647,-1.03 -5.833,-1.03 -7.063,0 -11.435,3.351 -11.435,10.799 V 0 h -8.38 v 5.53 h 8.38 v 8.604 l 6.844,2.173 V 5.53 h 9.831 V 0 Z"
             style="fill:#003399;fill-opacity:1;fill-rule:nonzero;stroke:none"
             id="path28" />
        </g>
      </g>
    </g>
    <path
       d="m 614.662,507.738 h 6.855 v 37.159 h -6.855 z m 7.302,53.178 h -7.734 v -7.725 h 7.734 z"
       style="fill:#003399;fill-opacity:1;fill-rule:nonzero;stroke:none"
       id="path30" />
    <g
       id="g32">
      <g
         id="g34"
         clip-path="url(#clipPath38)">
        <g
           id="g40"
           transform="translate(638.8518,526.3089)">
          <path
             d="M 0,0 C 0,7.068 4.292,13.91 11.66,13.91 18.939,13.91 23.24,7.068 23.24,0 23.24,-6.629 19.683,-13.922 11.66,-13.922 3.575,-13.922 0,-6.629 0,0 m -7.29,0 c 0,-10.625 7.725,-19.452 18.948,-19.452 11.145,0 18.868,8.827 18.868,19.452 0,11.301 -7.57,19.459 -18.868,19.459 C 0.298,19.459 -7.29,11.301 -7.29,0"
             style="fill:#003399;fill-opacity:1;fill-rule:nonzero;stroke:none"
             id="path42" />
        </g>
        <g
           id="g44"
           transform="translate(678.5723,544.8885)">
          <path
             d="m 0,0 h 6.622 v -5.899 h 0.137 c 2.051,4.228 7.009,6.778 12.18,6.778 9.607,0 13.919,-5.974 13.919,-15.961 v -22.077 h -6.862 v 19.232 c 0,8.673 -1.875,12.896 -7.863,13.255 -7.798,0 -11.289,-6.253 -11.289,-15.283 V -37.161 H 0 Z"
             style="fill:#003399;fill-opacity:1;fill-rule:nonzero;stroke:none"
             id="path46" />
        </g>
        <g
           id="g48"
           transform="translate(745.1471,522.1498)">
          <path
             d="m 0,0 c 0,-5.526 -3.557,-9.762 -10.344,-9.762 -3.131,0 -6.919,2.126 -6.919,6.052 0,6.555 9.174,7.137 12.905,7.137 1.442,0 2.909,-0.135 4.358,-0.135 z m -19.962,14.299 c 2.776,2.312 6.919,3.77 10.779,3.77 6.855,0 9.183,-3.278 9.183,-9.696 -2.687,0.156 -4.592,0.156 -7.279,0.156 -7.057,0 -17.263,-2.903 -17.263,-12.242 0,-8.068 5.605,-11.589 13.619,-11.589 6.263,0 9.907,3.431 11.511,5.693 h 0.138 v -4.814 H 7.144 C 7,-13.322 6.855,-11.363 6.855,-7.126 V 8.233 c 0,10.131 -4.294,15.38 -14.944,15.38 -4.711,0 -8.808,-1.451 -12.23,-3.498 z"
             style="fill:#003399;fill-opacity:1;fill-rule:nonzero;stroke:none"
             id="path50" />
        </g>
      </g>
    </g>
    <path
       d="m 764.464,562.376 h 6.844 v -54.645 h -6.844 z"
       style="fill:#003399;fill-opacity:1;fill-rule:nonzero;stroke:none"
       id="path52" />
    <g
       id="g54">
      <g
         id="g56"
         clip-path="url(#clipPath60)">
        <g
           id="g62"
           transform="translate(842.2841,528.7833)">
          <path
             d="m 0,0 c 0,-14.269 -7.213,-21.933 -19.742,-21.933 -12.53,0 -19.75,7.664 -19.75,21.933 v 29.812 h 7.298 V 0.948 c 0,-9.758 3.044,-16.453 12.449,-16.453 9.397,0 12.452,6.695 12.452,16.453 v 28.864 h 7.291 L -0.002,0 Z"
             style="fill:#003399;fill-opacity:1;fill-rule:nonzero;stroke:none"
             id="path64" />
        </g>
        <g
           id="g66"
           transform="translate(854.6743,544.8885)">
          <path
             d="m 0,0 h 6.631 v -5.899 h 0.137 c 2.049,4.228 7.009,6.778 12.171,6.778 9.616,0 13.928,-5.974 13.928,-15.961 v -22.077 h -6.853 v 19.232 c 0,8.673 -1.904,12.896 -7.879,13.255 -7.789,0 -11.289,-6.253 -11.289,-15.283 V -37.161 H 0 Z"
             style="fill:#003399;fill-opacity:1;fill-rule:nonzero;stroke:none"
             id="path68" />
        </g>
      </g>
    </g>
    <path
       d="m 900.051,544.888 h 6.855 v -37.157 h -6.855 z m 7.297,8.303 h -7.725 v 7.725 h 7.725 z"
       style="fill:#003399;fill-opacity:1;fill-rule:nonzero;stroke:none"
       id="path70" />
    <g
       id="g72"
       transform="translate(935.9052,507.7385)">
      <path
         d="m 0,0 h -8.158 l -13.333,37.159 h 7.503 L -3.935,6.835 h 0.156 L 6.487,37.159 h 6.844 z"
         style="fill:#003399;fill-opacity:1;fill-rule:nonzero;stroke:none"
         id="path74" />
    </g>
    <g
       id="g76">
      <g
         id="g78"
         clip-path="url(#clipPath82)">
        <g
           id="g84"
           transform="translate(960.681,529.8865)">
          <path
             d="m 0,0 c 0.504,4.816 3.276,10.335 9.975,10.335 5.897,0 9.243,-4.661 9.243,-10.335 z M 23.673,-13.777 C 22.004,-15.16 16.753,-17.488 12.239,-17.488 5.764,-17.488 0,-12.452 0,-5.095 h 26.515 c 0,11.939 -4.01,20.967 -16.393,20.967 -10.488,0 -17.419,-7.79 -17.419,-18.795 0,-12.079 6.059,-20.113 19.245,-20.113 6.112,0 9.108,1.467 11.725,2.406 z"
             style="fill:#003399;fill-opacity:1;fill-rule:nonzero;stroke:none"
             id="path86" />
        </g>
        <g
           id="g88"
           transform="translate(996.3799,544.8885)">
          <path
             d="m 0,0 h 6.409 v -5.754 h 0.156 c 1.806,3.868 5.752,6.631 9.677,6.631 2.042,0 3.063,-0.213 4.526,-0.522 V -5.757 C 19.523,-5.242 18.14,-5.1 16.979,-5.1 10.85,-5.1 6.858,-10.928 6.858,-20.267 V -37.161 H 0.002 L 0.002,0 Z"
             style="fill:#003399;fill-opacity:1;fill-rule:nonzero;stroke:none"
             id="path90" />
        </g>
        <g
           id="g92"
           transform="translate(1021.959,515.0288)">
          <path
             d="m 0,0 c 2.68,-1.751 6.553,-2.641 8.517,-2.641 3.134,0 7.002,1.313 7.002,5.315 0,6.789 -16.126,6.196 -16.126,16.629 0,7.714 5.762,11.436 13.128,11.436 3.209,0 5.818,-0.657 8.535,-1.452 l -0.59,-5.992 c -1.529,0.968 -5.618,1.895 -7.213,1.895 -3.497,0 -6.553,-1.46 -6.553,-4.516 0,-7.57 16.096,-5.384 16.096,-17.266 0,-7.926 -6.343,-11.589 -12.974,-11.589 -3.498,0 -7.055,0.364 -10.197,2.047 z"
             style="fill:#003399;fill-opacity:1;fill-rule:nonzero;stroke:none"
             id="path94" />
        </g>
      </g>
    </g>
    <path
       d="m 1053.927,544.888 h 6.855 v -37.157 h -6.855 z m 7.29,8.303 h -7.723 v 7.725 h 7.723 z"
       style="fill:#003399;fill-opacity:1;fill-rule:nonzero;stroke:none"
       id="path96" />
    <g
       id="g98">
      <g
         id="g100"
         clip-path="url(#clipPath104)">
        <g
           id="g106"
           transform="translate(1093.0499,539.3583)">
          <path
             d="m 0,0 h -9.813 v -20.331 c 0,-4.301 2.603,-6.629 5.743,-6.629 2.12,0 3.635,0.655 4.661,1.303 v -5.821 c -1.527,-0.439 -3.647,-1.03 -5.821,-1.03 -7.078,0 -11.445,3.351 -11.445,10.799 V 0 h -8.38 v 5.53 h 8.38 v 8.604 l 6.862,2.173 V 5.53 L 0,5.53 Z"
             style="fill:#003399;fill-opacity:1;fill-rule:nonzero;stroke:none"
             id="path108" />
        </g>
        <g
           id="g110"
           transform="translate(1098.889,497.6739)">
          <path
             d="m 0,0 c 0.872,-0.291 2.03,-0.581 3.198,-0.581 6.118,0 8.158,8.45 8.158,9.178 0,0.802 -0.87,2.706 -1.314,3.942 L -2.566,47.215 h 7.513 l 9.977,-30.762 h 0.144 l 10.209,30.762 h 6.929 L 18.509,9.263 c -2.55,-7.137 -5.258,-15.37 -14.286,-15.37 -2.195,0 -3.431,0.279 -4.66,0.501 z"
             style="fill:#003399;fill-opacity:1;fill-rule:nonzero;stroke:none"
             id="path112" />
        </g>
        <g
           id="g114"
           transform="translate(497.1531,440.207)">
          <path
             d="M 0,0 C 0,7.066 4.292,13.908 11.658,13.908 18.939,13.908 23.24,7.066 23.24,0 23.24,-6.622 19.671,-13.919 11.658,-13.919 3.557,-13.919 0,-6.622 0,0 m -7.286,0 c 0,-10.635 7.714,-19.449 18.944,-19.449 11.136,0 18.872,8.817 18.872,19.449 0,11.294 -7.59,19.459 -18.872,19.459 C 0.291,19.459 -7.286,11.294 -7.286,0"
             style="fill:#003399;fill-opacity:1;fill-rule:nonzero;stroke:none"
             id="path116" />
        </g>
        <g
           id="g118"
           transform="translate(541.2936,453.2381)">
          <path
             d="M 0,0 H -8.739 V 5.546 H 0 v 3.422 c 0,9.03 2.348,14.938 12.473,14.938 1.739,0 3.197,-0.215 4.573,-0.446 l -0.272,-5.531 c -0.804,0.303 -2.138,0.435 -3.287,0.435 -5.908,0 -6.625,-3.79 -6.625,-8.819 V 5.544 h 9.843 V -0.002 H 6.862 v -31.593 h -6.864 l 0,31.595 z"
             style="fill:#003399;fill-opacity:1;fill-rule:nonzero;stroke:none"
             id="path120" />
        </g>
        <g
           id="g122"
           transform="translate(607.1725,464.8271)">
          <path
             d="m 0,0 c -3.713,1.46 -5.75,2.117 -9.531,2.117 -4.091,0 -8.904,-1.458 -8.904,-6.777 0,-9.774 21.857,-7.49 21.857,-24.263 0,-10.846 -8.371,-15.158 -18.58,-15.158 -3.557,0 -7.066,1.035 -10.403,2.115 l 0.717,6.778 c 2.476,-1.026 6.844,-2.475 10.565,-2.475 4.157,0 9.987,2.33 9.987,8.318 0,11.347 -21.855,8.216 -21.855,24.019 0,9.059 7.135,13.855 16.327,13.855 3.344,0 7.346,-0.582 10.836,-1.811 z"
             style="fill:#003399;fill-opacity:1;fill-rule:nonzero;stroke:none"
             id="path124" />
        </g>
      </g>
    </g>
    <path
       d="m 620.728,458.775 h 6.862 v -37.139 h -6.862 z m 7.288,8.311 h -7.725 v 7.716 h 7.725 z"
       style="fill:#003399;fill-opacity:1;fill-rule:nonzero;stroke:none"
       id="path126" />
    <g
       id="g128">
      <g
         id="g130"
         clip-path="url(#clipPath134)">
        <g
           id="g136"
           transform="translate(640.1085,458.7843)">
          <path
             d="m 0,0 h 6.629 v -5.906 h 0.144 c 2.051,4.237 6.997,6.799 12.161,6.799 9.628,0 13.931,-5.997 13.931,-15.98 v -22.049 h -6.862 v 19.216 c 0,8.67 -1.886,12.887 -7.87,13.253 -7.791,0 -11.28,-6.261 -11.28,-15.291 V -37.136 H 0 Z"
             style="fill:#003399;fill-opacity:1;fill-rule:nonzero;stroke:none"
             id="path138" />
        </g>
        <g
           id="g140"
           transform="translate(699.782,427.1644)">
          <path
             d="m 0,0 c -6.409,0 -10.344,6.121 -10.344,13.116 0,6.333 3.431,13.834 10.344,13.834 7.29,0 10.845,-6.622 10.845,-14.345 C 10.845,5.686 6.409,0 0,0 m 17.707,31.62 h -6.342 v -5.546 h -0.151 c -2.042,4.01 -5.668,6.427 -12.23,6.427 -11.232,0 -16.618,-10.206 -16.618,-19.761 0,-9.606 5.239,-18.259 15.874,-18.259 4.747,0 9.561,1.875 12.47,5.741 h 0.135 v -3.646 c 0,-7.868 -4.292,-12.748 -11.511,-12.748 -5.027,0 -8.151,0.934 -13.4,3.347 l -0.735,-6.338 c 5.984,-2.035 9.406,-2.55 13.341,-2.55 13.331,0 19.167,6.475 19.167,17.79 z"
             style="fill:#003399;fill-opacity:1;fill-rule:nonzero;stroke:none"
             id="path142" />
        </g>
        <g
           id="g144"
           transform="translate(751.2105,436.0594)">
          <path
             d="m 0,0 c 0,-5.542 -3.557,-9.774 -10.346,-9.774 -3.129,0 -6.911,2.115 -6.911,6.057 0,6.544 9.175,7.125 12.897,7.125 1.448,0 2.909,-0.144 4.358,-0.144 l 0,-3.264 z m -19.953,14.269 c 2.765,2.337 6.913,3.786 10.779,3.786 6.844,0 9.174,-3.277 9.174,-9.682 -2.678,0.149 -4.583,0.149 -7.279,0.149 -7.066,0 -17.266,-2.925 -17.266,-12.237 0,-8.098 5.606,-11.598 13.62,-11.598 6.256,0 9.909,3.431 11.522,5.702 h 0.135 v -4.812 h 6.41 c -0.145,1.09 -0.28,3.033 -0.28,7.288 V 8.227 c 0,10.117 -4.319,15.379 -14.942,15.379 -4.727,0 -8.82,-1.46 -12.239,-3.511 z"
             style="fill:#003399;fill-opacity:1;fill-rule:nonzero;stroke:none"
             id="path146" />
        </g>
        <g
           id="g148"
           transform="translate(797.6973,440.3512)">
          <path
             d="m 0,0 c 0.153,-5.839 -2.902,-14.066 -10.264,-14.066 -7.725,0 -10.932,7.652 -10.932,13.849 0,6.908 3.578,13.978 11.001,13.978 C -2.772,13.761 0.153,6.691 0,0 m -28.054,-34.03 h 6.856 v 20.401 h 0.144 c 2.115,-3.426 5.828,-5.976 12.39,-5.976 11.223,0 15.952,9.907 15.952,20.127 0,9.966 -5.239,18.792 -16.03,18.792 -6.562,0 -10.788,-3.367 -12.603,-6.132 h -0.144 v 5.251 h -6.565 z"
             style="fill:#003399;fill-opacity:1;fill-rule:nonzero;stroke:none"
             id="path150" />
        </g>
        <g
           id="g152"
           transform="translate(818.9755,440.207)">
          <path
             d="m 0,0 c 0,7.066 4.289,13.908 11.658,13.908 7.279,0 11.58,-6.842 11.58,-13.908 0,-6.622 -3.576,-13.919 -11.58,-13.919 C 3.566,-13.919 0,-6.622 0,0 m -7.29,0 c 0,-10.635 7.734,-19.449 18.945,-19.449 11.136,0 18.871,8.817 18.871,19.449 0,11.294 -7.581,19.459 -18.871,19.459 C 0.279,19.459 -7.29,11.294 -7.29,0"
             style="fill:#003399;fill-opacity:1;fill-rule:nonzero;stroke:none"
             id="path154" />
        </g>
        <g
           id="g156"
           transform="translate(858.6891,458.7843)">
          <path
             d="m 0,0 h 6.398 v -5.761 h 0.144 c 1.829,3.863 5.761,6.651 9.694,6.651 2.03,0 3.055,-0.235 4.516,-0.531 v -6.12 c -1.236,0.51 -2.61,0.654 -3.779,0.654 -6.119,0 -10.131,-5.825 -10.131,-15.153 V -37.138 H 0 Z"
             style="fill:#003399;fill-opacity:1;fill-rule:nonzero;stroke:none"
             id="path158" />
        </g>
        <g
           id="g160"
           transform="translate(891.8243,443.7732)">
          <path
             d="m 0,0 c 0.513,4.807 3.276,10.344 9.984,10.344 5.906,0 9.252,-4.656 9.252,-10.344 z m 23.673,-13.764 c -1.662,-1.384 -6.92,-3.721 -11.425,-3.721 C 5.752,-17.485 0,-12.45 0,-5.102 h 26.515 c 0,11.957 -3.992,20.994 -16.373,20.994 -10.499,0 -17.419,-7.801 -17.419,-18.804 0,-12.081 6.041,-20.104 19.237,-20.104 6.118,0 9.105,1.449 11.713,2.395 z"
             style="fill:#003399;fill-opacity:1;fill-rule:nonzero;stroke:none"
             id="path162" />
        </g>
        <g
           id="g164"
           transform="translate(963.8605,659.9733)">
          <path
             d="m 0,0 c 13.951,-12.875 41.451,-24.602 75.028,-25.126 29.443,-0.501 53.184,8.352 54.644,32.762 3.123,52.82 -132.339,31.691 -127.088,120.855 2.61,44.624 46.913,59.404 94.704,58.582 25.831,-0.435 51.66,-6.553 65.824,-13.736 l 0.055,-31.686 c -17.275,11.84 -41.371,19.38 -61.306,19.758 C 71.537,161.961 47.466,156.382 47.079,134.216 46.26,87.988 182.918,99.076 177.697,10.632 174.767,-39.16 126.374,-54.434 75.71,-53.507 46.573,-53.111 18.039,-47.192 0.066,-37.992 Z"
             style="fill:#003399;fill-opacity:1;fill-rule:nonzero;stroke:none"
             id="path166" />
        </g>
        <g
           id="g168"
           transform="translate(835.717,606.2145)">
          <path
             d="m 0,0 c -62.922,0 -99.154,28.257 -99.154,86.393 v 147.586 h 47.174 l 0.018,-147.584 c 0,-36.145 17.353,-58.069 51.962,-58.069 34.598,0 51.969,21.926 51.969,58.069 L 51.98,233.979 H 99.133 V 86.395 C 99.133,28.257 62.903,0 0,0"
             style="fill:#003399;fill-opacity:1;fill-rule:nonzero;stroke:none"
             id="path170" />
        </g>
        <g
           id="g172"
           transform="translate(659.9355,840.1931)">
          <path
             d="m 0,0 v -166.241 l -108.115,154.476 c -5.116,7.123 -13.574,11.763 -22.988,11.763 h -35.788 v -226.679 h 31.446 v 166.339 l 107.932,-154.013 c 5.131,-7.357 13.63,-12.326 23.365,-12.326 H 31.437 L 31.437,0 Z"
             style="fill:#003399;fill-opacity:1;fill-rule:nonzero;stroke:none"
             id="path174" />
        </g>
        <g
           id="g176"
           transform="translate(438.7455,605.5942)">
          <path
             d="M 0,0 V 234.569 H -4.67 -382.132 V -0.181 c -0.018,-0.192 -0.03,-0.803 -0.03,-1.799 0,-11.085 2.397,-69.727 49.552,-144.006 51.515,-81.279 136.516,-106.403 140.103,-107.44 l 1.286,-0.354 1.275,0.354 c 3.605,1.035 88.867,26.152 140.413,107.44 C 1.865,-65.007 0.089,-2.609 0,0"
             style="fill:#003399;fill-opacity:1;fill-rule:nonzero;stroke:none"
             id="path178" />
        </g>
        <g
           id="g180"
           transform="translate(235.5376,811.9655)">
          <path
             d="m 0,0 c -0.648,0.126 -16.201,2.861 -34.769,2.861 -14.723,0 -28.006,-4.429 -33.845,-6.679 -5.839,2.252 -19.122,6.679 -33.833,6.679 -18.571,0 -34.136,-2.735 -34.781,-2.861 l -2.099,-0.378 v -16.075 -69.196 -13.637 l 3.083,0.666 c 0.126,0.029 13.001,2.795 31.949,2.795 14.24,0 29.002,-3.974 34.811,-6.062 l 0.87,-0.32 0.87,0.32 c 5.809,2.09 20.571,6.062 34.829,6.062 18.927,0 31.803,-2.766 31.928,-2.795 l 3.086,-0.666 v 13.637 69.196 16.075 z"
             style="fill:#ff6600;fill-opacity:1;fill-rule:nonzero;stroke:none"
             id="path182" />
        </g>
        <g
           id="g184"
           transform="translate(164.4856,803.565)">
          <path
             d="m 0,0 c -5.887,2.204 -18.028,6.052 -31.29,6.052 -14.366,0 -27.047,-1.721 -31.794,-2.445 v -74.783 c 4.967,0.852 15.67,2.337 29.958,2.337 12.8,0 25.609,-2.929 33.128,-5.248 L 0.002,0 Z"
             style="fill:#ffffff;fill-opacity:1;fill-rule:nonzero;stroke:none"
             id="path186" />
        </g>
        <g
           id="g188"
           transform="translate(200.8826,809.617)">
          <path
             d="m 0,0 c -13.436,0 -25.733,-3.953 -31.533,-6.139 v -74.087 c 7.492,2.348 20.436,5.326 33.38,5.326 14.288,0 24.98,-1.471 29.949,-2.321 V -2.447 C 27.037,-1.712 14.366,0 0,0"
             style="fill:#ffffff;fill-opacity:1;fill-rule:nonzero;stroke:none"
             id="path190" />
        </g>
        <g
           id="g192"
           transform="translate(115.4948,797.1467)">
          <path
             d="m 0,0 c -1.836,-0.492 -2.852,-2.175 -2.291,-3.77 0.572,-1.586 2.515,-2.465 4.351,-1.982 0.096,0.03 9.589,1.703 17.68,1.703 7.348,0 15.583,-3.338 15.67,-3.365 1.797,-0.591 3.789,0.201 4.466,1.76 0.675,1.557 -0.24,3.287 -2.032,3.887 C 37.438,-1.632 28.372,1.964 19.738,1.964 10.577,1.962 0.426,0.105 0,0"
             style="fill:#003399;fill-opacity:1;fill-rule:nonzero;stroke:none"
             id="path194" />
        </g>
        <g
           id="g196"
           transform="translate(115.4948,782.2982)">
          <path
             d="m 0,0 c -1.836,-0.501 -2.852,-2.184 -2.291,-3.779 0.572,-1.575 2.515,-2.474 4.351,-1.971 0.096,0.018 9.589,1.692 17.68,1.692 7.348,0 15.583,-3.335 15.67,-3.365 1.797,-0.579 3.789,0.213 4.466,1.769 0.675,1.554 -0.24,3.287 -2.032,3.866 C 37.438,-1.65 28.372,1.964 19.738,1.964 10.577,1.962 0.426,0.105 0,0"
             style="fill:#003399;fill-opacity:1;fill-rule:nonzero;stroke:none"
             id="path198" />
        </g>
        <g
           id="g200"
           transform="translate(115.4948,767.4313)">
          <path
             d="m 0,0 c -1.836,-0.494 -2.852,-2.186 -2.291,-3.763 0.572,-1.584 2.515,-2.484 4.351,-1.98 0.096,0.018 9.589,1.703 17.68,1.703 7.348,0 15.583,-3.337 15.67,-3.365 1.797,-0.59 3.789,0.202 4.466,1.76 0.675,1.566 -0.24,3.287 -2.032,3.866 C 37.438,-1.653 28.372,1.973 19.738,1.973 10.577,1.971 0.426,0.124 0,0"
             style="fill:#003399;fill-opacity:1;fill-rule:nonzero;stroke:none"
             id="path202" />
        </g>
        <g
           id="g204"
           transform="translate(115.4948,752.5804)">
          <path
             d="m 0,0 c -1.836,-0.501 -2.852,-2.193 -2.291,-3.77 0.572,-1.584 2.515,-2.477 4.351,-1.982 0.096,0.018 9.589,1.712 17.68,1.712 7.348,0 15.583,-3.353 15.67,-3.374 1.797,-0.591 3.789,0.192 4.466,1.76 0.675,1.557 -0.24,3.296 -2.032,3.866 C 37.438,-1.65 28.372,1.975 19.738,1.975 10.577,1.975 0.426,0.108 0,0"
             style="fill:#003399;fill-opacity:1;fill-rule:nonzero;stroke:none"
             id="path206" />
        </g>
        <g
           id="g208"
           transform="translate(218.8647,797.1467)">
          <path
             d="m 0,0 c 1.838,-0.492 2.852,-2.175 2.291,-3.77 -0.572,-1.586 -2.513,-2.465 -4.349,-1.982 -0.089,0.03 -9.591,1.703 -17.682,1.703 -7.339,0 -15.574,-3.338 -15.661,-3.365 -1.797,-0.591 -3.798,0.201 -4.466,1.76 -0.675,1.557 0.231,3.287 2.03,3.887 0.385,0.135 9.474,3.731 18.097,3.731 C -10.568,1.962 -0.428,0.105 0,0"
             style="fill:#003399;fill-opacity:1;fill-rule:nonzero;stroke:none"
             id="path210" />
        </g>
        <g
           id="g212"
           transform="translate(218.8647,782.2982)">
          <path
             d="m 0,0 c 1.838,-0.501 2.852,-2.184 2.291,-3.779 -0.572,-1.575 -2.513,-2.474 -4.349,-1.971 -0.089,0.018 -9.591,1.692 -17.682,1.692 -7.339,0 -15.574,-3.335 -15.661,-3.365 -1.797,-0.579 -3.798,0.213 -4.466,1.769 -0.675,1.554 0.231,3.287 2.03,3.866 0.385,0.138 9.474,3.752 18.097,3.752 C -10.568,1.962 -0.428,0.105 0,0"
             style="fill:#003399;fill-opacity:1;fill-rule:nonzero;stroke:none"
             id="path214" />
        </g>
        <g
           id="g216"
           transform="translate(218.8647,767.4313)">
          <path
             d="m 0,0 c 1.838,-0.494 2.852,-2.186 2.291,-3.763 -0.572,-1.584 -2.513,-2.484 -4.349,-1.98 -0.089,0.018 -9.591,1.703 -17.682,1.703 -7.339,0 -15.574,-3.337 -15.661,-3.365 -1.797,-0.59 -3.798,0.202 -4.466,1.76 -0.675,1.566 0.231,3.287 2.03,3.866 0.385,0.126 9.474,3.752 18.097,3.752 C -10.568,1.971 -0.428,0.124 0,0"
             style="fill:#003399;fill-opacity:1;fill-rule:nonzero;stroke:none"
             id="path218" />
        </g>
        <g
           id="g220"
           transform="translate(218.8647,752.5804)">
          <path
             d="m 0,0 c 1.838,-0.501 2.852,-2.193 2.291,-3.77 -0.572,-1.584 -2.513,-2.477 -4.349,-1.982 -0.089,0.018 -9.591,1.712 -17.682,1.712 -7.339,0 -15.574,-3.353 -15.661,-3.374 -1.797,-0.591 -3.798,0.192 -4.466,1.76 -0.675,1.557 0.231,3.296 2.03,3.866 0.385,0.138 9.474,3.763 18.097,3.763 C -10.568,1.975 -0.428,0.108 0,0"
             style="fill:#003399;fill-opacity:1;fill-rule:nonzero;stroke:none"
             id="path222" />
        </g>
        <g
           id="g224"
           transform="translate(381.5968,465.0103)">
          <path
             d="m 0,0 c -46.297,-73.025 -123.137,-99.643 -133.829,-103.056 -10.635,3.419 -87.224,30.031 -133.502,103.056 -46.409,73.11 -48.101,131.733 -48.101,139.726 0,0.57 0.01,0.888 0.01,0.929 v 83.039 H 48.061 v -82.867 c 0,-0.058 0.03,-0.378 0.03,-0.976 C 48.094,131.646 46.379,73.073 0,0"
             style="fill:#ffffff;fill-opacity:1;fill-rule:nonzero;stroke:none"
             id="path226" />
        </g>
        <g
           id="g228"
           transform="translate(412.5299,621.4316)">
          <path
             d="m 0,0 c -1.877,6.835 -5.326,9.87 -9.918,12.303 -12.674,6.721 -29.223,2.003 -43.735,-2.927 -10.951,-3.741 -14.258,-4.864 -26.669,-6.767 -9.378,-1.439 -40.728,-5.5 -50.646,2.699 -1.412,1.179 -2.841,3.752 -2.985,5.402 -0.284,3.413 1.264,7.494 2.454,8.787 2.506,2.747 8.343,4.07 17.854,4.07 l 24.274,-0.38 c 1.518,-1.952 5.402,-5.093 15.263,-7.201 15.68,-3.353 32.925,2.099 32.925,2.099 0,0 -2.852,0.561 -5.219,2.339 -2.097,1.566 -1.914,3.926 -1.914,3.926 0,0 3.45,-1.664 8.488,-1.52 6.263,0.186 9.186,3.164 15.032,4.649 5.848,1.49 12.371,0.261 12.371,0.261 0,0 -5.914,6.324 -11.783,7.446 -5.837,1.11 -13.137,-0.387 -13.137,-0.387 0,0 1.829,0.822 4.004,2.784 1.751,1.574 2.097,4.262 2.097,4.262 0,0 -7.009,-2.708 -14.114,-2.34 -7.105,0.369 -6.583,2.942 -20.379,3.317 -10.461,0.272 -19.104,-5.944 -22.679,-8.97 -11.182,0.732 -19.987,1.13 -25.151,1.13 -14.21,0 -22.418,-2.33 -27.445,-7.78 -4.187,-4.555 -6.011,-10.46 -5.402,-17.547 0.462,-5.501 2.918,-10.131 7.304,-13.748 13.262,-10.98 48.849,-7.617 61.445,-5.383 14.105,2.49 18.319,3.584 26.486,6.283 0,0.007 0.465,0.153 0.465,0.153 6.322,2.129 25.549,8.545 33.613,4.265 1.644,-0.859 2.765,-2.484 3.45,-4.961 0.309,-1.119 0.453,-2.115 0.453,-3.044 0,-1.673 -0.504,-3.063 -1.548,-4.331 -7.345,-8.982 -34.966,-10.517 -46.962,-11.156 -1.314,0.32 -9.328,2.119 -19.981,2.174 -7.132,0.042 -13.097,-0.416 -19.41,-0.888 -11.521,-0.87 -23.442,-1.769 -43.239,0.495 -9.185,1.053 -17.787,2.724 -24.274,4.639 -0.309,2.466 -1.449,4.805 -3.914,7.57 4.747,-1.536 10.92,3.683 12.653,6.283 -0.018,0.264 -8.43,2.486 -8.934,7.948 -0.009,0.174 5.956,-0.495 8.44,7.695 -5.956,3.228 -4.091,4.418 -6.952,8.44 -2.523,3.538 -6.176,5.326 -10.68,5.212 1.826,0.24 1.991,0 3.973,0.993 2.591,1.307 4.388,4.864 6.961,4.72 -5.191,8.119 -19.122,9.183 -24.902,7.473 1.49,1.845 3.77,3.896 3.8,6.428 -7.702,-2.127 -15.245,1.872 -23.016,0.423 -6.438,-1.208 -10.11,-3.825 -12.122,-9.945 h -0.018 -0.261 -0.009 c -2.031,6.118 -5.693,8.737 -12.141,9.945 -7.753,1.449 -15.311,-2.55 -23.007,-0.423 0.039,-2.532 2.31,-4.583 3.789,-6.428 -5.771,1.71 -19.702,0.646 -24.893,-7.473 2.582,0.144 4.37,-3.413 6.952,-4.72 2.289,-1.14 2.744,-0.906 3.971,-0.993 -4.484,0.114 -8.149,-1.674 -10.673,-5.212 -2.882,-4.022 -0.996,-5.212 -6.961,-8.44 2.495,-8.19 8.469,-7.521 8.458,-7.695 -0.513,-5.462 -8.923,-7.684 -8.953,-7.948 1.742,-2.598 7.909,-7.819 12.674,-6.283 -3.904,-4.367 -4.552,-7.705 -3.664,-12.104 -6.061,4.601 -12.036,9.675 -15.215,13.88 -0.744,1.085 -3.122,8.904 -4.697,14.077 l -1.286,4.217 -0.628,2.243 c -1.895,6.97 -3.731,12.807 -6.901,13.58 -1.742,0.417 -3.289,0.513 -4.69,0.428 -1.092,1.71 -2.618,3.509 -4.397,4.07 -3.674,1.113 -5.452,0.309 -5.452,0.309 0,0 2.978,-2.138 3.982,-4.33 0.252,-0.561 0.408,-1.104 0.513,-1.587 -0.675,-0.375 -1.266,-0.78 -1.769,-1.197 l -0.27,-0.213 c -0.378,-0.3 -0.891,-0.725 -1.44,-1.22 -0.252,0.078 -0.504,0.138 -0.765,0.165 -3.808,0.504 -5.434,-0.6 -5.434,-0.6 0,0 2.07,-1.014 3.608,-2.428 -1.325,-1.845 -2.429,-4.212 -2.429,-7.142 0,-0.281 0.03,-0.579 0.058,-0.89 -3.635,-0.268 -4.988,-1.596 -4.988,-1.596 0,0 3.536,-0.954 5.258,-2.639 0.185,-0.192 0.359,-0.387 0.503,-0.57 -0.165,-0.192 -0.291,-0.327 -0.291,-0.327 -0.734,-1.151 -1.062,-2.468 -1.062,-3.82 0,-3.18 1.779,-6.604 4.235,-8.856 0,0 6.535,-5.402 7.153,-5.915 2.582,-5.773 5.441,-10.848 7.318,-12.983 0.59,-0.724 4.582,-7.606 8.817,-14.888 0.561,-0.966 1.133,-1.961 1.721,-2.968 0.909,-4.464 1.944,-10.024 2.397,-14.393 0.84,-7.861 0.039,-16.637 0.039,-16.637 0,0 5.095,0.252 7.405,3.569 0.048,0.084 1.874,-5.443 1.613,-11.669 -0.213,-4.604 -1.439,-10.992 -1.439,-10.992 0,0 4.969,2.637 8.7,5.944 1.884,1.655 3.779,4.4 4.939,6.197 4.1,-2.61 15.854,1.57 21.711,3.914 1.143,-2.319 2.717,-4.901 4.88,-7.817 0.861,3.516 4.613,5.278 6.352,8.089 0.522,0.009 1.062,0.009 1.596,0.009 0.213,-3.847 -0.9,-7.464 2.735,-14.663 1.035,-2.042 6.091,-9.581 9.763,-13.436 -1.381,-6.526 -4.029,-18.415 -6.757,-28.15 -3.132,-11.136 -5.666,-16.666 -7.105,-19.239 -4.196,-0.203 -11.853,-0.462 -14.288,-0.354 -5.828,0.279 -10.152,-0.95 -12.828,-3.635 -0.201,-0.195 -0.359,-0.399 -0.531,-0.602 -2.032,-0.28 -4.36,-0.918 -5.626,-2.34 -2.543,-2.879 -2.552,-4.834 -2.552,-4.834 0,0 3.17,1.834 5.578,1.834 0.183,0 0.348,-0.023 0.513,-0.035 v -0.494 c 0.039,-0.568 0.357,-1.477 0.899,-2.589 -0.396,-0.279 -0.744,-0.602 -1.034,-0.966 -2.337,-3.033 -2.214,-5.001 -2.214,-5.001 0,0 2.978,2.005 5.375,2.197 0.746,-1.197 1.584,-2.429 2.477,-3.626 -0.108,-0.116 -0.225,-0.24 -0.3,-0.368 -2.106,-3.216 -1.827,-5.162 -1.827,-5.162 0,0 2.358,1.859 4.592,2.465 0.764,-0.869 1.508,-1.655 2.222,-2.27 3.509,-3.095 12.219,-1.092 23.259,1.847 l 6.834,1.691 c 4.835,0.898 7.831,2.83 10.044,6.453 0.531,0.854 1.005,2.255 1.749,4.5 l 0.639,1.914 c 1.527,4.289 2.717,7.015 5.743,11.882 0.105,0.144 3.065,4.907 7.086,11.465 3.567,2.964 7.868,6.405 10.99,8.534 4.775,3.209 14.278,8.064 14.278,8.064 0,0 -2.531,4.113 -6.313,4.687 -0.077,0.007 4.816,4.979 8.916,6.744 4.61,2.014 10.575,3.104 10.575,3.104 0,0 -2.174,4.445 -5.53,6.606 1.401,0.46 2.678,1.272 4.262,2.318 8.023,5.237 13.94,5.045 19.527,3.48 0.213,3.616 -0.696,5.841 -3.829,7.938 2.639,1.11 5.365,2.078 8.256,2.765 1.827,-3.141 3.896,-6.613 4.832,-7.948 4.138,-5.866 10.364,-13.939 15.403,-18.987 0.123,-0.123 0.183,-0.354 0.183,-0.686 0,-2.106 -2.573,-7.943 -4.05,-11.278 l -1.258,-2.884 c 0,-0.012 -5.064,-11.921 -6.542,-15.391 -2.949,-0.172 -11.505,-0.639 -14.501,-0.483 -5.684,0.261 -9.888,-0.929 -12.498,-3.53 -0.339,-0.336 -0.629,-0.675 -0.87,-1.014 -2.117,-0.375 -4.651,-1.149 -5.907,-2.753 -2.379,-3.029 -2.283,-4.967 -2.283,-4.967 0,0 3.056,1.998 5.462,2.142 0.38,0.023 0.728,0.011 1.067,-0.016 0.096,-0.627 0.444,-1.547 0.986,-2.621 -0.561,-0.41 -1.055,-0.858 -1.401,-1.401 -2.108,-3.211 -1.835,-5.143 -1.835,-5.143 0,0 2.87,2.259 5.266,2.609 0.087,0.012 0.163,0.012 0.261,0.023 0.573,-0.881 1.2,-1.783 1.836,-2.653 -0.222,-0.231 -0.442,-0.471 -0.618,-0.73 -2.108,-3.22 -1.838,-5.171 -1.838,-5.171 0,0 2.756,2.179 5.105,2.589 0.732,-0.842 1.448,-1.584 2.115,-2.174 3.355,-2.96 10.527,-1.193 20.291,1.616 l 6.961,1.815 c 4.706,0.881 7.636,2.753 9.804,6.292 l 1.824,3.944 c 0.861,1.991 1.847,4.258 2.591,5.434 1.131,1.776 2.321,3.926 3.53,6.244 1.634,1.392 3.152,2.669 4.234,3.503 3.116,2.382 11.022,6.743 11.022,6.743 0,0 -1.577,3.463 -4.807,3.79 -0.039,0.012 3.145,3.551 6.963,5.753 2.705,1.577 8.08,2.501 8.08,2.501 0,0 -3.713,3.143 -6.526,4.372 -1.131,0.483 -2.612,0.82 -4.01,1.062 -0.183,1.607 -1.023,3.404 -2.573,5.789 -2.772,4.297 1.286,13.517 4.196,18.738 1.469,-2.067 4.099,-5.51 8.487,-10.381 0,0 14.087,-15.402 17.19,-18.81 -0.599,-2.459 -2.579,-10.145 -5.695,-18.624 -2.252,-6.164 -5.472,-12.593 -7.114,-15.766 -3.392,-0.183 -11.085,-0.581 -13.901,-0.451 -5.674,0.279 -9.879,-0.911 -12.5,-3.523 -0.441,-0.439 -0.792,-0.897 -1.082,-1.341 -1.914,-0.462 -3.992,-1.259 -5.064,-2.68 -2.323,-3.072 -2.186,-5.027 -2.186,-5.027 0,0 2.31,2.17 5.423,2.243 0.153,0 0.279,-0.009 0.417,-0.009 0.144,-0.655 0.51,-1.547 1.05,-2.589 -0.561,-0.398 -1.043,-0.854 -1.389,-1.375 -2.099,-3.216 -1.829,-5.162 -1.829,-5.162 0,0 2.87,2.282 5.26,2.621 0.087,0.018 0.172,0.018 0.25,0.027 0.746,-1.121 1.545,-2.27 2.366,-3.355 -0.007,-0.016 -0.027,-0.039 -0.048,-0.053 -2.108,-3.2 -1.824,-5.155 -1.824,-5.155 0,0 2.115,1.68 4.235,2.367 0.608,-0.687 1.22,-1.302 1.769,-1.788 3.365,-2.968 10.566,-1.206 20.358,1.616 l 6.892,1.816 c 4.72,0.872 7.645,2.755 9.801,6.294 0.96,1.577 5.242,11.55 6.421,14.434 2.108,5.183 4.493,10.527 6.807,15.428 1.161,0.989 2.241,1.861 3.111,2.474 3.859,2.676 12.104,7.376 12.104,7.376 0,0 -1.643,3.527 -4.814,3.79 -0.041,0.009 3.239,3.141 6.506,5.228 3.026,1.946 8.535,3.024 8.535,3.024 0,0 -3.973,3.028 -6.777,4.237 -1.651,0.716 -3.992,1.172 -5.654,1.428 -0.495,2.342 -1.671,3.124 -3.45,4.022 -1.574,0.808 -3.731,1.895 -7.029,5.772 -4.223,4.979 -4.873,14.492 -4.873,23.984 0,2.088 0.041,4.178 0.059,6.217 l 0.019,9.108 c -0.273,10.71 -1.836,18.181 -3.324,23.116 13.967,1.264 39.556,4.095 50.044,16.913 3.143,3.848 4.736,8.353 4.736,13.263 C 0.957,-4.603 0.639,-2.339 0,0"
             style="fill:#003399;fill-opacity:1;fill-rule:nonzero;stroke:none"
             id="path230" />
        </g>
        <g
           id="g232"
           transform="translate(312.36,504.9551)">
          <path
             d="m 0,0 c 1.847,1.73 2.783,2.669 2.783,3.887 0,1.041 -0.686,2.309 -2.067,4.452 -1.055,1.616 -1.471,3.561 -1.471,5.626 0,6.874 4.573,15.151 6.381,18.147 -0.512,0.648 -1.256,1.584 -2.156,2.822 -0.483,0.321 -0.899,0.609 -1.151,0.783 -1.168,0.831 -4.175,3.356 -6.052,5.819 -0.261,0.348 -0.522,0.785 -0.804,1.249 -3.875,0.115 -12.903,0.376 -22.212,-2.456 2.87,-1.643 3.537,-3.779 3.662,-6.526 -6.127,1.335 -11.291,1.413 -15.94,0.735 1.625,-2.765 3.287,-5.539 4.061,-6.642 4.058,-5.75 10.14,-13.629 15.013,-18.532 0.792,-0.79 1.142,-1.838 1.142,-3.12 0,-3.028 -1.906,-7.345 -4.273,-12.722 l -1.245,-2.852 -7.387,-17.366 -1.083,-0.062 c -0.494,-0.039 -12.14,-0.746 -15.951,-0.554 -4.155,0.204 -7.339,-0.51 -9.289,-2.03 0.231,-0.79 0.396,-1.836 0.096,-2.823 -0.387,-1.304 -1.197,-1.95 -1.856,-2.289 0.087,-0.192 0.183,-0.386 0.309,-0.613 2.282,0.769 4.465,0.989 4.465,0.989 0,0 1.257,-1.664 0.747,-3.743 -0.408,-1.584 -1.17,-2.417 -1.712,-2.829 0.155,-0.231 0.311,-0.444 0.476,-0.666 2.579,1.053 5.402,1.321 5.402,1.321 0,0 1.327,-2.008 0.892,-4.194 -0.242,-1.183 -0.833,-1.847 -1.382,-2.243 3.122,-0.995 11.175,1.314 16.192,2.765 l 7.279,1.896 c 3.74,0.698 5.828,2.014 7.453,4.671 l 1.62,3.507 c 0.909,2.115 1.944,4.528 2.855,5.933 2.231,3.527 4.774,8.684 7.219,13.684 C -4.793,-7.49 -2.028,-1.872 0,0"
             style="fill:#ff6600;fill-opacity:1;fill-rule:nonzero;stroke:none"
             id="path234" />
        </g>
        <g
           id="g236"
           transform="translate(173.3714,549.7708)">
          <path
             d="M 0,0 C 0.018,-0.078 0,-0.144 0.018,-0.213 H 0.076 C 0.048,-0.144 0.018,-0.078 0,0"
             style="fill:#f19320;fill-opacity:1;fill-rule:nonzero;stroke:none"
             id="path238" />
        </g>
        <g
           id="g240"
           transform="translate(158.3672,569.8108)">
          <path
             d="m 0,0 c -2.262,-3.392 -6.352,-4.981 -11.649,-5.629 1.005,5.281 0.09,8.898 -1.856,13.082 -1.701,3.692 -6.361,10.934 -7.744,15.041 -0.386,1.16 -0.753,2.234 -1.101,3.257 -7.365,5.356 -15.457,11.873 -19.524,17.266 -0.957,1.275 -2.408,5.818 -5.26,15.166 l -1.275,4.205 -0.66,2.349 c -1.874,6.88 -3.355,10.614 -4.388,11.108 -0.716,0.176 -1.364,0.261 -1.991,0.309 v -0.011 c 0,0 -0.33,-2.109 -3.866,-1.941 -0.831,0.038 -1.527,0.309 -2.06,0.627 -0.309,-0.204 -0.598,-0.396 -0.831,-0.609 l -0.3,-0.222 c -0.174,-0.144 -0.348,-0.291 -0.522,-0.435 2.079,-1.886 3.566,-4.322 3.566,-4.322 0,0 -0.792,-2.156 -3.488,-2.639 -1.952,-0.339 -3.461,1.044 -3.461,1.044 0,0 0.018,0.677 -0.252,1.643 -0.81,-1.586 -1.197,-3.424 -0.773,-5.58 2.735,-1.412 5.104,-3.974 5.104,-3.974 0,0 -0.057,-2.03 -2.879,-3.449 -1.063,-0.55 -2.157,-0.231 -2.862,0.107 -0.348,-2.078 0.831,-5.028 2.997,-7.018 l 7.626,-6.313 0.174,-0.377 c 2.427,-5.473 5.27,-10.596 6.931,-12.491 0.628,-0.696 2.901,-4.571 9.211,-15.439 8.371,-14.412 21.027,-36.194 24.284,-39.806 1.257,-1.181 9.888,0.841 18.406,4.235 C -1.479,-12.393 1.161,-7.24 0,0"
             style="fill:#ff6600;fill-opacity:1;fill-rule:nonzero;stroke:none"
             id="path242" />
        </g>
        <g
           id="g244"
           transform="translate(409.1857,620.532)">
          <path
             d="m 0,0 c -1.547,5.677 -4.175,8.014 -8.188,10.14 -11.438,6.071 -27.145,1.559 -40.968,-3.152 -11.765,-4.01 -15.013,-5.026 -27.259,-6.901 -12.479,-1.925 -42.662,-5.423 -53.392,3.461 -2.154,1.767 -4.02,5.18 -4.263,7.78 -0.338,4.283 1.47,9.376 3.365,11.445 3.287,3.605 9.589,5.207 20.436,5.207 0,0 16.268,-0.261 25.259,-0.393 l 1.904,1.698 -1.856,1.985 c -11.241,0.744 -20.095,1.149 -25.229,1.149 -13.136,0 -20.582,-1.994 -24.872,-6.67 -3.509,-3.8 -5.008,-8.808 -4.505,-14.879 0.387,-4.534 2.429,-8.352 6.052,-11.348 11.283,-9.339 44.37,-7.163 58.619,-4.631 13.88,2.435 18.009,3.509 25.995,6.151 l 0.463,0.162 c 7.377,2.465 26.962,9.019 36.358,4.033 2.522,-1.343 4.223,-3.674 5.161,-7.137 1.159,-4.205 0.591,-7.636 -1.748,-10.497 -8.353,-10.216 -35.228,-11.658 -49.671,-12.438 l -0.309,-0.014 -0.243,0.06 c -0.096,0.02 -8.476,2.066 -19.449,2.135 -6.977,0.041 -12.875,-0.416 -19.12,-0.879 -11.687,-0.893 -23.782,-1.799 -43.909,0.492 -8.932,1.037 -17.371,2.658 -23.963,4.546 -0.417,-2.699 -1.49,-5.761 -2.832,-9.735 -1.382,-4.099 -6.022,-11.339 -7.734,-15.032 -1.941,-4.186 -2.859,-7.798 -1.875,-13.09 -5.287,0.659 -9.378,2.241 -11.639,5.638 -1.584,-9.939 4.031,-15.904 -7.774,-31.833 -1.19,4.816 -7.8,6.331 -7.221,11.784 -2.07,-5.668 1.268,-8.953 -3.48,-18.358 -1.19,-2.36 -7.812,-12.122 -11.396,-14.968 -1.449,-6.766 -4.011,-18.16 -6.631,-27.547 -3.594,-12.803 -6.524,-18.589 -7.964,-20.91 l -0.474,-0.785 -0.908,-0.048 c -3.8,-0.195 -12.741,-0.522 -15.572,-0.399 -3.926,0.193 -7.009,-0.414 -9.051,-1.719 0.195,-0.977 0.3,-2.366 -0.309,-3.378 -0.696,-1.213 -1.691,-1.747 -2.204,-1.96 0.078,-0.215 0.192,-0.444 0.33,-0.714 2.543,0.724 5.113,0.783 5.113,0.783 0,0 1.053,-2.138 -0.039,-4.72 -0.444,-1.053 -1.053,-1.575 -1.517,-1.838 0.249,-0.359 0.501,-0.698 0.755,-1.041 2.696,1.188 5.857,1.499 5.857,1.499 0,0 1.22,-1.591 0.426,-4.878 -0.249,-1.018 -0.801,-1.536 -1.275,-1.797 3.557,-1.101 13.551,1.552 19.17,3.049 l 7.096,1.747 c 3.857,0.719 6.032,2.071 7.714,4.843 0.339,0.552 0.909,2.264 1.401,3.768 0,0 0.675,1.964 0.675,1.98 1.575,4.452 2.882,7.476 6.07,12.571 7.27,11.626 28.75,46.766 29.617,49.591 0.042,0.144 0.042,0.318 0.042,0.521 0,1.866 -0.909,5.975 -1.644,8.586 l -0.465,1.662 c 0,0 69.581,20.349 73.611,21.528 -1.4,2.419 -4.282,7.396 -4.282,7.396 l 2.534,2.289 c 0.219,-0.163 5.569,-4.052 8.506,-6.989 2.591,-2.579 5.086,-6.571 7.713,-10.788 l 1.346,-2.147 c 2.978,-4.724 5.908,-8.217 5.945,-8.247 l 0.107,-0.135 0.076,-0.137 c 0.02,-0.039 2.348,-4.086 9.627,-12.198 l 18.436,-20.155 -0.202,-0.904 c -0.03,-0.084 -2.216,-9.483 -6.04,-19.909 -2.516,-6.885 -6.268,-14.219 -7.755,-17.055 l -0.465,-0.882 -0.975,-0.048 c -3.55,-0.21 -12.104,-0.657 -15.256,-0.524 -3.907,0.195 -6.929,-0.412 -8.913,-1.728 0.27,-0.918 0.524,-2.339 -0.019,-3.443 -0.599,-1.233 -1.488,-1.911 -1.989,-2.234 0.076,-0.155 0.172,-0.318 0.268,-0.501 2.293,0.774 4.505,0.996 4.505,0.996 0,0 1.112,-1.827 0.755,-4.132 -0.261,-1.545 -1.062,-2.238 -1.655,-2.559 0.215,-0.307 0.446,-0.62 0.668,-0.918 2.775,1.337 6.224,1.68 6.224,1.68 0,0 1.161,-1.6 0.765,-4.085 -0.174,-1.152 -0.957,-1.914 -1.575,-2.381 3.577,-0.423 10.74,1.644 15.361,2.983 l 7.222,1.872 c 3.729,0.694 5.818,2.007 7.462,4.688 0.705,1.149 4.669,10.284 6.166,13.93 4.37,10.713 10.797,24.257 14.975,31.494 l 2.321,3.658 c 1.364,2.042 2.552,3.795 2.444,4.995 -0.144,1.639 -0.24,1.684 -1.716,2.438 -1.742,0.881 -4.372,2.211 -8.122,6.622 -6.004,7.068 -5.811,20.591 -5.635,32.501 l 0.018,8.977 c -0.309,11.784 -2.211,19.653 -3.77,24.178 l -0.714,2.097 2.225,0.195 c 12.875,1.151 39.682,3.538 49.765,15.855 C 0.687,-12.276 1.758,-6.427 0,0"
             style="fill:#ff6600;fill-opacity:1;fill-rule:nonzero;stroke:none"
             id="path246" />
        </g>
        <g
           id="g248"
           transform="translate(339.6514,759.2894)">
          <path
             d="M 0,0 C 1.518,-1.971 2.783,-4.138 3.72,-6.469 2.504,-6.643 1.266,-6.748 0,-6.748 c -1.266,0 -2.502,0.096 -3.722,0.261 C -2.774,-4.148 -1.506,-1.98 0,0"
             style="fill:#ffffff;fill-opacity:1;fill-rule:nonzero;stroke:none"
             id="path250" />
        </g>
        <g
           id="g252"
           transform="translate(381.1801,779.1188)">
          <path
             d="m 0,0 c 0.018,0.442 0.066,0.888 0.066,1.334 0,22.938 -18.657,41.596 -41.586,41.596 -22.928,0 -41.597,-18.658 -41.597,-41.596 l 0.048,-1.343 c -13.184,-6.988 -22.176,-20.841 -22.176,-36.766 0,-22.928 18.646,-41.586 41.577,-41.586 7.918,0 15.536,2.234 22.167,6.419 6.42,-4.052 13.988,-6.419 22.118,-6.419 22.919,0 41.586,18.658 41.586,41.586 C 22.205,-21.404 13.523,-7.162 0,0 m -44.738,-40.013 3.218,-0.241 c 1.083,0 2.147,0.078 3.21,0.163 -0.424,-3.354 -1.518,-6.554 -3.21,-9.461 -1.661,2.88 -2.783,6.089 -3.218,9.539 m 22.62,4.591 c 7.917,4.196 14.308,10.896 18.156,19.026 6.397,-4.832 10.167,-12.248 10.167,-20.379 0,-14.111 -11.483,-25.577 -25.588,-25.577 -3.557,0 -6.94,0.715 -10.014,2.031 4.784,6.931 7.315,15.011 7.315,23.546 z m -41.55,40.236 c -1.082,0 -2.163,-0.087 -3.239,-0.165 1.623,12.683 12.288,22.272 25.385,22.272 13.001,0 23.75,-9.763 25.346,-22.341 l -3.209,0.234 c -7.881,0 -15.476,-2.223 -22.1,-6.382 -6.471,4.079 -14.089,6.382 -22.183,6.382 m 44.287,-16 0.135,-0.009 c -1.721,-3.056 -4.049,-5.693 -6.823,-7.801 -0.948,2.03 -2.04,3.944 -3.269,5.761 3.132,1.326 6.515,2.049 9.957,2.049 m -59.724,-5.24 c 3.839,-8.137 10.191,-14.761 18.186,-18.984 -0.011,-0.454 -0.048,-0.907 -0.048,-1.365 0,-8.727 2.706,-16.817 7.316,-23.516 -3.152,-1.346 -6.553,-2.061 -10.014,-2.061 -14.105,0 -25.587,11.466 -25.587,25.577 -0.002,8.305 3.999,15.68 10.147,20.349 m 22.119,-2.6 c -2.772,2.115 -5.105,4.795 -6.824,7.828 0.048,0 0.097,0.01 0.145,0.01 3.529,0 6.912,-0.735 10.025,-2.042 -1.277,-1.85 -2.399,-3.795 -3.346,-5.796"
             style="fill:#ff6600;fill-opacity:1;fill-rule:nonzero;stroke:none"
             id="path254" />
        </g>
        <g
           id="g256"
           transform="translate(347.5575,739.4532)">
          <path
             d="M 0,0 C 2.339,0.453 4.601,1.131 6.796,1.962 6.652,-5.51 4.322,-12.569 0.03,-18.609 c -1.884,1.245 -3.566,2.746 -5.045,4.438 C -2.175,-9.927 -0.453,-5.102 0,0"
             style="fill:#ffffff;fill-opacity:1;fill-rule:nonzero;stroke:none"
             id="path258" />
        </g>
        <g
           id="g260"
           transform="translate(339.6514,817.1454)">
          <path
             d="M 0,0 C 20.36,0 36.928,-16.568 36.928,-36.926 36.928,-57.293 20.358,-73.863 0,-73.863 l -3.383,0.25 c 0.114,2.264 0.522,4.468 1.22,6.583 L 0,-67.174 c 16.666,0 30.237,13.573 30.237,30.248 0,16.666 -13.571,30.238 -30.237,30.238 -15.881,0 -28.729,-11.958 -30.082,-27.55 -2.36,-0.456 -4.621,-1.143 -6.816,-1.973 C -36.511,-16.181 -20.127,0 0,0"
             style="fill:#ffffff;fill-opacity:1;fill-rule:nonzero;stroke:none"
             id="path262" />
        </g>
        <g
           id="g264"
           transform="translate(361.788,779.041)">
          <path
             d="M 0,0 3.376,-0.252 C 3.25,-2.534 2.834,-4.747 2.138,-6.835 L 0,-6.698 c -4.463,0 -8.872,-1.046 -12.875,-2.941 -1.566,1.799 -3.258,3.472 -5.093,4.96 C -12.491,-1.616 -6.35,0 0,0"
             style="fill:#ffffff;fill-opacity:1;fill-rule:nonzero;stroke:none"
             id="path266" />
        </g>
        <g
           id="g268"
           transform="translate(317.5125,705.1644)">
          <path
             d="m 0,0 c -20.367,0 -36.937,16.579 -36.937,36.937 0,20.36 16.57,36.94 36.937,36.94 14.647,0 27.628,-8.449 33.614,-21.663 -1.992,-0.998 -4.107,-1.77 -6.343,-2.225 C 22.274,60.486 11.754,67.179 0,67.179 -16.675,67.179 -30.249,53.605 -30.249,36.939 -30.249,20.273 -16.675,6.702 0,6.702 4.496,6.702 8.916,7.757 12.944,9.68 14.51,7.892 16.192,6.21 18.019,4.72 12.539,1.625 6.372,0 0,0"
             style="fill:#ffffff;fill-opacity:1;fill-rule:nonzero;stroke:none"
             id="path270" />
        </g>
        <g
           id="g272"
           transform="translate(312.3806,767.1681)">
          <path
             d="M 0,0 C 2.264,-4.688 5.725,-8.767 9.996,-11.754 9.241,-13.995 8.682,-16.295 8.323,-18.653 1.865,-14.798 -3.209,-9.085 -6.331,-2.223 -4.34,-1.227 -2.232,-0.453 0,0"
             style="fill:#ffffff;fill-opacity:1;fill-rule:nonzero;stroke:none"
             id="path274" />
        </g>
        <g
           id="g276"
           transform="translate(361.788,705.1644)">
          <path
             d="m 0,0 c -20.367,0 -36.935,16.579 -36.935,36.937 0,7.764 2.367,15.08 6.814,21.338 1.866,-1.238 3.569,-2.735 5.054,-4.438 -3.371,-4.997 -5.182,-10.8 -5.182,-16.9 0,-16.666 13.572,-30.237 30.247,-30.237 16.666,0 30.237,13.571 30.237,30.237 0,10.026 -4.864,19.122 -13.013,24.787 0.744,2.223 1.316,4.542 1.685,6.931 C 29.935,62.043 36.926,49.929 36.926,36.937 36.928,16.581 20.36,0 0,0"
             style="fill:#ffffff;fill-opacity:1;fill-rule:nonzero;stroke:none"
             id="path278" />
        </g>
        <g
           id="g280"
           transform="translate(216.4453,632.0936)">
          <path
             d="m 0,0 c 2.186,1.52 7.405,5.851 4.621,11.108 -2.957,5.558 -9.762,3.296 -11.781,2.466 -0.281,0.288 -15.334,6.834 -15.537,6.72 0.144,0.096 -5.876,-6.963 -5.876,-6.963 0,0 -5.984,7.059 -5.86,6.963 -0.213,0.114 -15.254,-6.432 -15.535,-6.72 -2.021,0.83 -8.817,3.092 -11.775,-2.466 -2.804,-5.255 2.427,-9.586 4.613,-11.108 -0.03,-0.087 -0.048,-0.126 -0.048,-0.126 0,0 -4.91,-8.698 -4.853,-8.59 0.078,0.144 14.18,-17.081 14.18,-17.081 0.021,0.039 -0.027,-11.09 -0.027,-11.138 0,0 5.605,-3.767 6.031,-3.884 0.9,-4.226 1.172,-6.407 2.156,-8.701 0.321,-0.732 5.693,-2.302 10.923,-2.387 h 0.417 c 5.209,0.085 10.605,1.655 10.904,2.387 0.996,2.294 1.269,4.475 2.157,8.701 0.444,0.117 6.013,3.884 6.013,3.884 0.009,-0.009 0,11.111 0.009,11.138 -0.009,0 14.105,17.227 14.173,17.081 0.067,-0.108 -4.843,8.59 -4.843,8.59 0,0 -0.021,0.039 -0.062,0.126"
             style="fill:#ff6600;fill-opacity:1;fill-rule:nonzero;stroke:none"
             id="path282" />
        </g>
      </g>
    </g>
    <g
       id="g284"
       transform="translate(180.3024,624.0502)">
      <path
         d="M 0,0 -12.615,7.183 0.474,7.336 Z"
         style="fill:#1d427c;fill-opacity:1;fill-rule:nonzero;stroke:none"
         id="path286" />
    </g>
    <g
       id="g288">
      <g
         id="g290"
         clip-path="url(#clipPath294)">
        <g
           id="g296"
           transform="translate(197.1035,623.8762)">
          <path
             d="m 0,0 c 0.066,-0.579 2.01,-17.563 2.01,-17.563 0,0 -9.223,-4.999 -9.676,-5.242 -0.011,-0.492 -0.059,-5.857 -0.059,-6.272 0.425,-0.32 2.09,-1.568 3.811,-2.293 3.111,-1.312 6.224,-0.55 6.262,-0.538 l 0.774,0.201 -0.659,-2.33 -0.282,-0.048 c -0.144,-0.03 -3.653,-0.659 -6.514,0.201 -2.477,0.753 -3.77,1.701 -4.118,1.973 h -1.497 c -0.339,-0.251 -1.701,-1.22 -4.214,-1.973 -2.84,-0.86 -6.361,-0.231 -6.496,-0.201 l -0.288,0.048 -0.66,2.33 0.774,-0.201 c 0.039,-0.012 3.15,-0.774 6.274,0.538 1.721,0.725 3.386,1.973 3.8,2.293 0,0.417 -0.018,5.908 -0.018,6.343 -0.378,0.25 -9.648,6.844 -9.648,6.844 0,0 16.375,0.018 17.256,0.03 V 7.116 l 13.631,0.106 1.721,0.011 C 12.182,7.231 0.492,0.302 0,0"
             style="fill:#1d427c;fill-opacity:1;fill-rule:nonzero;stroke:none"
             id="path298" />
        </g>
      </g>
    </g>
  </g>
</svg>
